<?xml version="1.0" encoding="UTF-8"?><svg id="Capa_2" xmlns="http://www.w3.org/2000/svg" viewBox="0 0 243.82 55"><g id="Capa_1-2"><g><g><path d="M73.02,5.75l-18.02,43.51h11.06l2.86-7.15h20.88l2.86,7.15h11.25L85.83,5.75h-12.8Zm-.75,28.16l7.15-17.78,7.09,17.78h-14.23Z"/><path d="M132.32,25.57h-1.61v7.89h5.9v5.47c-1.99,1.06-3.79,1.86-8.02,1.86-7.96,0-13.18-5.1-13.18-13.24,0-8.64,5.97-13.3,13.43-13.3,3.85,0,8.08,1.18,12.06,3.67l4.16-8.33c-5.22-3.17-10.88-4.6-16.35-4.6-12.87,0-24.24,8.33-24.24,22.56,0,12.99,9.94,22.44,23.68,22.44,6.84,0,13.55-2.42,18.58-5.72l.06-18.71h-14.48Z"/><path d="M183.04,30.73c0,6.65-3.54,10.26-9.51,10.26s-9.32-3.61-9.32-10.26V5.75h-10.75V30.73c0,11.87,7.83,19.27,20.08,19.27s20.14-7.4,20.14-19.27V5.75h-10.63V30.73Z"/><path d="M225.74,5.75h-12.8l-18.02,43.51h11.06l2.86-7.15h20.88l2.86,7.15h11.25L225.74,5.75Zm-13.55,28.16l7.15-17.78,7.09,17.78h-14.23Z"/></g><g><path d="M19.51,0c8.83,0,15.98,7.16,15.98,15.98v3.52h-15.98V0Z" style="fill:#42a7c6;"/><path d="M35.49,55c-8.83,0-15.98-7.16-15.98-15.98v-3.52h15.98v19.51Z" style="fill:#38d430;"/><path d="M55,19.51c0,8.83-7.16,15.98-15.98,15.98h-3.52v-15.98h19.51Z" style="fill:#38d430;"/><path d="M0,35.49c0-8.83,7.16-15.98,15.98-15.98h3.52v15.98H0Z" style="fill:#42a7c6;"/><rect x="19.51" y="19.51" width="15.98" height="15.98" style="fill:#00758d;"/></g></g></g></svg>