<?xml version="1.0" encoding="UTF-8"?><svg id="Capa_2" xmlns="http://www.w3.org/2000/svg" xmlns:xlink="http://www.w3.org/1999/xlink" viewBox="0 0 200 42.93"><defs><clipPath id="clippath"><path d="M27.71,42.93V12.48C27.71,5.59,22.12,0,15.23,0V30.46c0,6.89,5.59,12.48,12.48,12.48Z" style="fill:none;"/></clipPath><clipPath id="clippath-1"><path d="M42.93,15.23H12.48C5.59,15.23,0,20.81,0,27.71H30.46c6.89,0,12.48-5.59,12.48-12.48Z" style="fill:none;"/></clipPath></defs><g id="Capa_1-2"><g><g><path d="M57.93,3.37l-14.99,36.19h9.2l2.38-5.95h17.37l2.38,5.95h9.36L68.58,3.37h-10.65Zm-.62,23.42l5.95-14.79,5.89,14.79h-11.84Z" style="fill:#fff;"/><path d="M107.25,19.87h-1.34v6.56h4.91v4.55c-1.65,.88-3.15,1.55-6.67,1.55-6.62,0-10.96-4.24-10.96-11.01,0-7.19,4.96-11.06,11.17-11.06,3.21,0,6.72,.98,10.03,3.05l3.46-6.93c-4.34-2.64-9.05-3.83-13.6-3.83-10.7,0-20.16,6.93-20.16,18.77,0,10.81,8.27,18.66,19.7,18.66,5.69,0,11.27-2.02,15.46-4.76l.05-15.56h-12.05Z" style="fill:#fff;"/><path d="M149.44,24.16c0,5.53-2.95,8.53-7.91,8.53s-7.75-3-7.75-8.53V3.37h-8.94V24.16c0,9.87,6.51,16.03,16.7,16.03s16.75-6.15,16.75-16.03V3.37h-8.84V24.16Z" style="fill:#fff;"/><path d="M184.96,3.37h-10.65l-14.99,36.19h9.2l2.38-5.95h17.37l2.38,5.95h9.36L184.96,3.37Zm-11.27,23.42l5.95-14.79,5.89,14.79h-11.84Z" style="fill:#fff;"/></g><g><g style="clip-path:url(#clippath);"><g><line x1="27.45" y1="-1.28" x2="27.45" y2="44.11" style="fill:none; stroke:#fff; stroke-miterlimit:10; stroke-width:.5px;"/><line x1="26.36" y1="-1.28" x2="26.36" y2="44.11" style="fill:none; stroke:#fff; stroke-miterlimit:10; stroke-width:.5px;"/><line x1="25.27" y1="-1.28" x2="25.27" y2="44.11" style="fill:none; stroke:#fff; stroke-miterlimit:10; stroke-width:.5px;"/><line x1="24.19" y1="-1.28" x2="24.19" y2="44.11" style="fill:none; stroke:#fff; stroke-miterlimit:10; stroke-width:.5px;"/><line x1="23.1" y1="-1.28" x2="23.1" y2="44.11" style="fill:none; stroke:#fff; stroke-miterlimit:10; stroke-width:.5px;"/><line x1="22.01" y1="-1.28" x2="22.01" y2="44.11" style="fill:none; stroke:#fff; stroke-miterlimit:10; stroke-width:.5px;"/><line x1="20.92" y1="-1.28" x2="20.92" y2="44.11" style="fill:none; stroke:#fff; stroke-miterlimit:10; stroke-width:.5px;"/><line x1="19.84" y1="-1.28" x2="19.84" y2="44.11" style="fill:none; stroke:#fff; stroke-miterlimit:10; stroke-width:.5px;"/><line x1="18.75" y1="-1.28" x2="18.75" y2="44.11" style="fill:none; stroke:#fff; stroke-miterlimit:10; stroke-width:.5px;"/><line x1="17.66" y1="-1.28" x2="17.66" y2="44.11" style="fill:none; stroke:#fff; stroke-miterlimit:10; stroke-width:.5px;"/><line x1="16.57" y1="-1.28" x2="16.57" y2="44.11" style="fill:none; stroke:#fff; stroke-miterlimit:10; stroke-width:.5px;"/><line x1="15.48" y1="-1.28" x2="15.48" y2="44.11" style="fill:none; stroke:#fff; stroke-miterlimit:10; stroke-width:.5px;"/></g></g><g style="clip-path:url(#clippath-1);"><g><line x1="-1.28" y1="15.48" x2="44.11" y2="15.48" style="fill:none; stroke:#fff; stroke-miterlimit:10; stroke-width:.5px;"/><line x1="-1.28" y1="16.57" x2="44.11" y2="16.57" style="fill:none; stroke:#fff; stroke-miterlimit:10; stroke-width:.5px;"/><line x1="-1.28" y1="17.66" x2="44.11" y2="17.66" style="fill:none; stroke:#fff; stroke-miterlimit:10; stroke-width:.5px;"/><line x1="-1.28" y1="18.75" x2="44.11" y2="18.75" style="fill:none; stroke:#fff; stroke-miterlimit:10; stroke-width:.5px;"/><line x1="-1.28" y1="19.84" x2="44.11" y2="19.84" style="fill:none; stroke:#fff; stroke-miterlimit:10; stroke-width:.5px;"/><line x1="-1.28" y1="20.92" x2="44.11" y2="20.92" style="fill:none; stroke:#fff; stroke-miterlimit:10; stroke-width:.5px;"/><line x1="-1.28" y1="22.01" x2="44.11" y2="22.01" style="fill:none; stroke:#fff; stroke-miterlimit:10; stroke-width:.5px;"/><line x1="-1.28" y1="23.1" x2="44.11" y2="23.1" style="fill:none; stroke:#fff; stroke-miterlimit:10; stroke-width:.5px;"/><line x1="-1.28" y1="24.19" x2="44.11" y2="24.19" style="fill:none; stroke:#fff; stroke-miterlimit:10; stroke-width:.5px;"/><line x1="-1.28" y1="25.27" x2="44.11" y2="25.27" style="fill:none; stroke:#fff; stroke-miterlimit:10; stroke-width:.5px;"/><line x1="-1.28" y1="26.36" x2="44.11" y2="26.36" style="fill:none; stroke:#fff; stroke-miterlimit:10; stroke-width:.5px;"/><line x1="-1.28" y1="27.45" x2="44.11" y2="27.45" style="fill:none; stroke:#fff; stroke-miterlimit:10; stroke-width:.5px;"/></g></g><rect x="15.23" y="15.23" width="12.5" height="12.5" style="fill:#fff;"/></g></g></g></svg>