<?xml version="1.0" encoding="UTF-8"?><svg id="Capa_2" xmlns="http://www.w3.org/2000/svg" viewBox="0 0 200.5 43.93"><g id="Capa_1-2"><g><g><path d="M58.43,3.87l-14.99,36.19h9.2l2.38-5.95h17.37l2.38,5.95h9.36L69.08,3.87h-10.65Zm-.62,23.42l5.95-14.79,5.89,14.79h-11.84Z"/><path d="M107.75,20.37h-1.34v6.56h4.91v4.55c-1.65,.88-3.15,1.55-6.67,1.55-6.62,0-10.96-4.24-10.96-11.01,0-7.19,4.96-11.06,11.17-11.06,3.21,0,6.72,.98,10.03,3.05l3.46-6.93c-4.34-2.64-9.05-3.83-13.6-3.83-10.7,0-20.16,6.93-20.16,18.77,0,10.81,8.27,18.66,19.7,18.66,5.69,0,11.27-2.02,15.46-4.76l.05-15.56h-12.05Z"/><path d="M149.94,24.66c0,5.53-2.95,8.53-7.91,8.53s-7.75-3-7.75-8.53V3.87h-8.94V24.66c0,9.87,6.51,16.03,16.7,16.03s16.75-6.15,16.75-16.03V3.87h-8.84V24.66Z"/><path d="M185.46,3.87h-10.65l-14.99,36.19h9.2l2.38-5.95h17.37l2.38,5.95h9.36L185.46,3.87Zm-11.27,23.42l5.95-14.79,5.89,14.79h-11.84Z"/></g><path d="M28.21,43.43V12.98C28.21,6.09,22.62,.5,15.73,.5V30.96c0,6.89,5.59,12.48,12.48,12.48Z" style="fill:none; stroke:#000; stroke-miterlimit:10;"/><path d="M43.43,15.73H12.98c-6.89,0-12.48,5.59-12.48,12.48H30.96c6.89,0,12.48-5.59,12.48-12.48Z" style="fill:none; stroke:#000; stroke-miterlimit:10;"/></g></g></svg>